# This file uses centimeters as units for non-parametric coordinates.

mtllib CharolaYPlato.mtl
g default
v 0.170585 2.967282 -0.440978
v 0.097721 2.967282 -0.583980
v -0.015766 2.967282 -0.697468
v -0.158769 2.967282 -0.770331
v -0.317289 2.967282 -0.795438
v -0.475808 2.967282 -0.770331
v -0.618811 2.967282 -0.697468
v -0.732298 2.967282 -0.583980
v -0.805162 2.967282 -0.440978
v -0.830269 2.967282 -0.282458
v -0.805162 2.967282 -0.123938
v -0.732298 2.967282 0.019064
v -0.618811 2.967282 0.132552
v -0.475808 2.967282 0.205415
v -0.317289 2.967282 0.230522
v -0.158769 2.967282 0.205415
v -0.015766 2.967282 0.132552
v 0.097721 2.967282 0.019064
v 0.170584 2.967282 -0.123939
v 0.195692 2.967282 -0.282458
v 0.170585 3.037793 -0.440978
v 0.097721 3.037793 -0.583980
v -0.015766 3.037793 -0.697468
v -0.158769 3.037793 -0.770331
v -0.317289 3.037793 -0.795438
v -0.475808 3.037793 -0.770331
v -0.618811 3.037793 -0.697468
v -0.732298 3.037793 -0.583980
v -0.805162 3.037793 -0.440978
v -0.830269 3.037793 -0.282458
v -0.805162 3.037793 -0.123938
v -0.732298 3.037793 0.019064
v -0.618811 3.037793 0.132552
v -0.475808 3.037793 0.205415
v -0.317289 3.037793 0.230522
v -0.158769 3.037793 0.205415
v -0.015766 3.037793 0.132552
v 0.097721 3.037793 0.019064
v 0.170584 3.037793 -0.123939
v 0.195692 3.037793 -0.282458
v -0.317289 2.967282 -0.282458
v -0.317289 3.037793 -0.282458
vt 0.648603 0.107966
vt 0.626409 0.064408
vt 0.591842 0.029841
vt 0.548284 0.007647
vt 0.500000 -0.000000
vt 0.451716 0.007647
vt 0.408159 0.029841
vt 0.373591 0.064409
vt 0.351397 0.107966
vt 0.343750 0.156250
vt 0.351397 0.204534
vt 0.373591 0.248091
vt 0.408159 0.282659
vt 0.451716 0.304853
vt 0.500000 0.312500
vt 0.548284 0.304853
vt 0.591841 0.282659
vt 0.626409 0.248091
vt 0.648603 0.204534
vt 0.656250 0.156250
vt 0.375000 0.312500
vt 0.387500 0.312500
vt 0.400000 0.312500
vt 0.412500 0.312500
vt 0.425000 0.312500
vt 0.437500 0.312500
vt 0.450000 0.312500
vt 0.462500 0.312500
vt 0.475000 0.312500
vt 0.487500 0.312500
vt 0.500000 0.312500
vt 0.512500 0.312500
vt 0.525000 0.312500
vt 0.537500 0.312500
vt 0.550000 0.312500
vt 0.562500 0.312500
vt 0.575000 0.312500
vt 0.587500 0.312500
vt 0.600000 0.312500
vt 0.612500 0.312500
vt 0.625000 0.312500
vt 0.375000 0.688440
vt 0.387500 0.688440
vt 0.400000 0.688440
vt 0.412500 0.688440
vt 0.425000 0.688440
vt 0.437500 0.688440
vt 0.450000 0.688440
vt 0.462500 0.688440
vt 0.475000 0.688440
vt 0.487500 0.688440
vt 0.500000 0.688440
vt 0.512500 0.688440
vt 0.525000 0.688440
vt 0.537500 0.688440
vt 0.550000 0.688440
vt 0.562500 0.688440
vt 0.575000 0.688440
vt 0.587500 0.688440
vt 0.600000 0.688440
vt 0.612500 0.688440
vt 0.625000 0.688440
vt 0.648603 0.795466
vt 0.626409 0.751908
vt 0.591842 0.717341
vt 0.548284 0.695147
vt 0.500000 0.687500
vt 0.451716 0.695147
vt 0.408159 0.717341
vt 0.373591 0.751909
vt 0.351397 0.795466
vt 0.343750 0.843750
vt 0.351397 0.892034
vt 0.373591 0.935591
vt 0.408159 0.970159
vt 0.451716 0.992353
vt 0.500000 1.000000
vt 0.548284 0.992353
vt 0.591841 0.970159
vt 0.626409 0.935591
vt 0.648603 0.892034
vt 0.656250 0.843750
vt 0.500000 0.150000
vt 0.500000 0.837500
vn 0.951057 0.000000 -0.309016
vn 0.809017 0.000000 -0.587785
vn 0.809017 0.000000 -0.587785
vn 0.951057 0.000000 -0.309016
vn 0.587785 0.000000 -0.809017
vn 0.587785 0.000000 -0.809017
vn 0.309017 0.000000 -0.951057
vn 0.309017 0.000000 -0.951057
vn -0.000000 0.000000 -1.000000
vn -0.000000 0.000000 -1.000000
vn -0.309017 0.000000 -0.951056
vn -0.309017 0.000000 -0.951056
vn -0.587785 0.000000 -0.809017
vn -0.587785 0.000000 -0.809017
vn -0.809017 0.000000 -0.587785
vn -0.809017 0.000000 -0.587785
vn -0.951057 0.000000 -0.309017
vn -0.951057 0.000000 -0.309017
vn -1.000000 0.000000 0.000000
vn -1.000000 0.000000 0.000000
vn -0.951056 0.000000 0.309017
vn -0.951056 0.000000 0.309017
vn -0.809017 0.000000 0.587785
vn -0.809017 0.000000 0.587785
vn -0.587785 0.000000 0.809017
vn -0.587785 0.000000 0.809017
vn -0.309017 0.000000 0.951057
vn -0.309017 0.000000 0.951057
vn 0.000000 0.000000 1.000000
vn 0.000000 0.000000 1.000000
vn 0.309017 0.000000 0.951056
vn 0.309017 0.000000 0.951056
vn 0.587785 0.000000 0.809017
vn 0.587785 0.000000 0.809017
vn 0.809017 0.000000 0.587785
vn 0.809017 0.000000 0.587785
vn 0.951056 0.000000 0.309017
vn 0.951056 0.000000 0.309017
vn 1.000000 0.000000 0.000001
vn 1.000000 0.000000 0.000001
vn 0.000000 -1.000000 0.000000
vn 0.000000 -1.000000 0.000000
vn 0.000000 -1.000000 0.000000
vn 0.000000 -1.000000 0.000000
vn 0.000000 -1.000000 0.000000
vn 0.000000 -1.000000 0.000000
vn 0.000000 -1.000000 0.000000
vn 0.000000 -1.000000 0.000000
vn 0.000000 -1.000000 0.000000
vn 0.000000 -1.000000 0.000000
vn 0.000000 -1.000000 0.000000
vn 0.000000 -1.000000 0.000000
vn 0.000000 -1.000000 0.000000
vn 0.000000 -1.000000 0.000000
vn 0.000000 -1.000000 0.000000
vn 0.000000 -1.000000 0.000000
vn 0.000000 -1.000000 0.000000
vn 0.000000 -1.000000 0.000000
vn 0.000000 -1.000000 0.000000
vn 0.000000 -1.000000 0.000000
vn 0.000000 -1.000000 0.000000
vn 0.000000 1.000000 0.000000
vn 0.000000 1.000000 0.000000
vn 0.000000 1.000000 0.000000
vn 0.000000 1.000000 0.000000
vn 0.000000 1.000000 0.000000
vn 0.000000 1.000000 0.000000
vn 0.000000 1.000000 0.000000
vn 0.000000 1.000000 0.000000
vn 0.000000 1.000000 0.000000
vn 0.000000 1.000000 0.000000
vn 0.000000 1.000000 0.000000
vn 0.000000 1.000000 0.000000
vn 0.000000 1.000000 0.000000
vn 0.000000 1.000000 0.000000
vn 0.000000 1.000000 0.000000
vn 0.000000 1.000000 0.000000
vn 0.000000 1.000000 0.000000
vn 0.000000 1.000000 0.000000
vn 0.000000 1.000000 0.000000
vn 0.000000 1.000000 0.000000
vn 0.000000 1.000000 0.000000
s 1
g pCylinder2
usemtl lambert5SG
f 1/21/1 2/22/2 22/43/3 21/42/4
f 2/22/2 3/23/5 23/44/6 22/43/3
f 3/23/5 4/24/7 24/45/8 23/44/6
f 4/24/7 5/25/9 25/46/10 24/45/8
f 5/25/9 6/26/11 26/47/12 25/46/10
f 6/26/11 7/27/13 27/48/14 26/47/12
f 7/27/13 8/28/15 28/49/16 27/48/14
f 8/28/15 9/29/17 29/50/18 28/49/16
f 9/29/17 10/30/19 30/51/20 29/50/18
f 10/30/19 11/31/21 31/52/22 30/51/20
f 11/31/21 12/32/23 32/53/24 31/52/22
f 12/32/23 13/33/25 33/54/26 32/53/24
f 13/33/25 14/34/27 34/55/28 33/54/26
f 14/34/27 15/35/29 35/56/30 34/55/28
f 15/35/29 16/36/31 36/57/32 35/56/30
f 16/36/31 17/37/33 37/58/34 36/57/32
f 17/37/33 18/38/35 38/59/36 37/58/34
f 18/38/35 19/39/37 39/60/38 38/59/36
f 19/39/37 20/40/39 40/61/40 39/60/38
f 20/40/39 1/41/1 21/62/4 40/61/40
s 2
f 2/2/41 1/1/42 41/83/43
f 3/3/44 2/2/41 41/83/43
f 4/4/45 3/3/44 41/83/43
f 5/5/46 4/4/45 41/83/43
f 6/6/47 5/5/46 41/83/43
f 7/7/48 6/6/47 41/83/43
f 8/8/49 7/7/48 41/83/43
f 9/9/50 8/8/49 41/83/43
f 10/10/51 9/9/50 41/83/43
f 11/11/52 10/10/51 41/83/43
f 12/12/53 11/11/52 41/83/43
f 13/13/54 12/12/53 41/83/43
f 14/14/55 13/13/54 41/83/43
f 15/15/56 14/14/55 41/83/43
f 16/16/57 15/15/56 41/83/43
f 17/17/58 16/16/57 41/83/43
f 18/18/59 17/17/58 41/83/43
f 19/19/60 18/18/59 41/83/43
f 20/20/61 19/19/60 41/83/43
f 1/1/42 20/20/61 41/83/43
s 3
f 21/81/62 22/80/63 42/84/64
f 22/80/63 23/79/65 42/84/64
f 23/79/65 24/78/66 42/84/64
f 24/78/66 25/77/67 42/84/64
f 25/77/67 26/76/68 42/84/64
f 26/76/68 27/75/69 42/84/64
f 27/75/69 28/74/70 42/84/64
f 28/74/70 29/73/71 42/84/64
f 29/73/71 30/72/72 42/84/64
f 30/72/72 31/71/73 42/84/64
f 31/71/73 32/70/74 42/84/64
f 32/70/74 33/69/75 42/84/64
f 33/69/75 34/68/76 42/84/64
f 34/68/76 35/67/77 42/84/64
f 35/67/77 36/66/78 42/84/64
f 36/66/78 37/65/79 42/84/64
f 37/65/79 38/64/80 42/84/64
f 38/64/80 39/63/81 42/84/64
f 39/63/81 40/82/82 42/84/64
f 40/82/82 21/81/62 42/84/64
g default
v -1.859732 2.888341 1.191500
v -0.487287 2.888341 -1.236786
v -1.971152 2.888341 1.128526
v -0.598707 2.888341 -1.299759
v -1.971152 3.278418 1.128526
v -0.598707 3.278418 -1.299759
v -1.859732 3.278418 1.191500
v -0.487287 3.278418 -1.236786
v -0.381628 2.888341 2.026911
v 0.990817 2.888341 -0.401375
v -0.493047 2.888341 1.963937
v 0.879398 2.888341 -0.464348
v -0.493047 3.278418 1.963937
v 0.879398 3.278418 -0.464348
v -0.381628 3.278418 2.026911
v 0.990817 3.278418 -0.401375
v -1.966463 3.278418 1.145936
v -1.903458 3.278418 1.034462
v -1.903458 2.888340 1.034462
v -1.966463 2.888340 1.145936
v -1.452522 3.015807 1.436410
v -1.389518 3.015807 1.324936
v -1.389518 3.150951 1.324936
v -1.452522 3.150951 1.436410
v -0.330685 2.888340 1.923379
v -0.393690 2.888340 2.034853
v -0.907630 3.015807 1.744379
v -0.844626 3.015807 1.632905
v -0.844626 3.150951 1.632905
v -0.907630 3.150951 1.744379
v -0.393690 3.278418 2.034853
v -0.330685 3.278418 1.923379
v -0.632552 3.278418 -1.214170
v -0.569548 3.278418 -1.325644
v -0.569548 2.888340 -1.325644
v -0.632552 2.888340 -1.214170
v -0.118612 3.015807 -0.923695
v -0.055608 3.015807 -1.035170
v -0.055608 3.150951 -1.035170
v -0.118612 3.150951 -0.923695
v 1.003225 2.888340 -0.436727
v 0.940221 2.888340 -0.325253
v 0.426281 3.015807 -0.615727
v 0.489285 3.015807 -0.727201
v 0.489285 3.150951 -0.727201
v 0.426281 3.150951 -0.615727
v 0.940221 3.278418 -0.325253
v 1.003225 3.278418 -0.436727
v -1.951190 2.965879 1.118914
v -0.378417 2.965879 2.007831
v -1.951190 2.883509 1.118914
v -0.378417 2.883509 2.007831
v -0.584710 2.883509 -1.298817
v 0.988063 2.883509 -0.409900
v -0.584710 2.965879 -1.298817
v 0.988063 2.965879 -0.409900
vt 0.375000 0.000000
vt 0.625000 0.000000
vt 0.375000 0.250000
vt 0.625000 0.250000
vt 0.375000 0.500000
vt 0.625000 0.500000
vt 0.375000 0.750000
vt 0.625000 0.750000
vt 0.375000 1.000000
vt 0.625000 1.000000
vt 0.875000 0.000000
vt 0.875000 0.250000
vt 0.125000 0.000000
vt 0.125000 0.250000
vt 0.375000 0.000000
vt 0.625000 0.000000
vt 0.625000 0.250000
vt 0.375000 0.250000
vt 0.625000 0.500000
vt 0.375000 0.500000
vt 0.625000 0.750000
vt 0.375000 0.750000
vt 0.625000 1.000000
vt 0.375000 1.000000
vt 0.875000 0.000000
vt 0.875000 0.250000
vt 0.125000 0.000000
vt 0.125000 0.250000
vt 0.125000 0.000000
vt 0.125000 0.250000
vt 0.375000 0.250000
vt 0.375000 0.000000
vt 0.375000 0.036174
vt 0.375000 0.088466
vt 0.125000 0.088466
vt 0.125000 0.036174
vt 0.625000 0.250000
vt 0.625000 0.000000
vt 0.625000 0.036174
vt 0.625000 0.088466
vt 0.625000 0.661534
vt 0.625000 0.713826
vt 0.375000 0.713826
vt 0.375000 0.661534
vt 0.375000 0.500000
vt 0.375000 0.750000
vt 0.625000 0.750000
vt 0.625000 0.500000
vt 0.875000 0.036174
vt 0.875000 0.088466
vt 0.875000 0.250000
vt 0.875000 0.000000
vt 0.543307 0.418307
vt 0.456693 0.418307
vt 0.456693 0.331693
vt 0.375000 1.000000
vt 0.456693 0.918307
vt 0.456693 0.831693
vt 0.543307 0.831693
vt 0.543307 0.331693
vt 0.543307 0.918307
vt 0.625000 1.000000
vt 0.125000 0.000000
vt 0.125000 0.250000
vt 0.375000 0.250000
vt 0.375000 0.000000
vt 0.375000 0.036174
vt 0.375000 0.088466
vt 0.125000 0.088466
vt 0.125000 0.036174
vt 0.625000 0.250000
vt 0.625000 0.000000
vt 0.625000 0.036174
vt 0.625000 0.088466
vt 0.625000 0.661534
vt 0.625000 0.713826
vt 0.375000 0.713826
vt 0.375000 0.661534
vt 0.375000 0.500000
vt 0.375000 0.750000
vt 0.625000 0.750000
vt 0.625000 0.500000
vt 0.875000 0.036174
vt 0.875000 0.088466
vt 0.875000 0.250000
vt 0.875000 0.000000
vt 0.543307 0.418307
vt 0.456693 0.418307
vt 0.456693 0.331693
vt 0.375000 1.000000
vt 0.456693 0.918307
vt 0.456693 0.831693
vt 0.543307 0.831693
vt 0.543307 0.331693
vt 0.543307 0.918307
vt 0.625000 1.000000
vt 0.375000 0.000000
vt 0.625000 0.000000
vt 0.625000 0.250000
vt 0.375000 0.250000
vt 0.625000 0.500000
vt 0.375000 0.500000
vt 0.625000 0.750000
vt 0.375000 0.750000
vt 0.625000 1.000000
vt 0.375000 1.000000
vt 0.875000 0.000000
vt 0.875000 0.250000
vt 0.125000 0.000000
vt 0.125000 0.250000
vn 0.000000 -1.000000 0.000000
vn 0.000000 -1.000000 0.000000
vn 0.000000 -1.000000 0.000000
vn 0.000000 -1.000000 0.000000
vn -0.870573 0.000000 -0.492040
vn -0.870573 0.000000 -0.492040
vn -0.870573 0.000000 -0.492040
vn -0.870573 0.000000 -0.492040
vn 0.000000 1.000000 0.000000
vn 0.000000 1.000000 0.000000
vn 0.000000 1.000000 0.000000
vn 0.000000 1.000000 0.000000
vn 0.870573 0.000000 0.492040
vn 0.870573 0.000000 0.492040
vn 0.870573 0.000000 0.492040
vn 0.870573 0.000000 0.492040
vn 0.492040 0.000000 -0.870573
vn 0.492040 0.000000 -0.870573
vn 0.492040 0.000000 -0.870573
vn 0.492040 0.000000 -0.870573
vn -0.492040 0.000000 0.870573
vn -0.492040 0.000000 0.870573
vn -0.492040 0.000000 0.870573
vn -0.492040 0.000000 0.870573
vn 0.000000 -1.000000 0.000000
vn 0.000000 -1.000000 0.000000
vn 0.000000 -1.000000 0.000000
vn 0.000000 -1.000000 0.000000
vn -0.870573 0.000000 -0.492040
vn -0.870573 0.000000 -0.492040
vn -0.870573 0.000000 -0.492040
vn -0.870573 0.000000 -0.492040
vn 0.000000 1.000000 0.000000
vn 0.000000 1.000000 0.000000
vn 0.000000 1.000000 0.000000
vn 0.000000 1.000000 0.000000
vn 0.870573 0.000000 0.492040
vn 0.870573 0.000000 0.492040
vn 0.870573 0.000000 0.492040
vn 0.870573 0.000000 0.492040
vn 0.492040 0.000000 -0.870573
vn 0.492040 0.000000 -0.870573
vn 0.492040 0.000000 -0.870573
vn 0.492040 0.000000 -0.870573
vn -0.492040 0.000000 0.870573
vn -0.492040 0.000000 0.870573
vn -0.492040 0.000000 0.870573
vn -0.492040 0.000000 0.870573
vn -0.870573 0.000000 -0.492040
vn -0.870573 0.000000 -0.492040
vn -0.870573 0.000000 -0.492040
vn -0.870573 0.000000 -0.492040
vn 0.870573 0.000000 0.492040
vn 0.870573 0.000000 0.492040
vn 0.870573 0.000000 0.492040
vn 0.870573 0.000000 0.492040
vn 0.000000 -1.000000 0.000000
vn 0.000000 -1.000000 0.000000
vn 0.000000 -1.000000 0.000000
vn 0.000000 -1.000000 0.000000
vn 0.000000 1.000000 0.000000
vn 0.000000 1.000000 0.000000
vn 0.000000 1.000000 0.000000
vn 0.000000 1.000000 0.000000
vn 0.000000 -1.000000 0.000000
vn 0.000000 -1.000000 0.000000
vn 0.000000 -1.000000 0.000000
vn 0.000000 -1.000000 0.000000
vn 0.000000 1.000000 0.000000
vn 0.000000 1.000000 0.000000
vn 0.000000 1.000000 0.000000
vn 0.000000 1.000000 0.000000
vn -0.870573 0.000000 -0.492040
vn -0.870573 0.000000 -0.492040
vn -0.870573 0.000000 -0.492040
vn -0.870573 0.000000 -0.492040
vn 0.870573 0.000000 0.492040
vn 0.870573 0.000000 0.492040
vn 0.870573 0.000000 0.492040
vn 0.870573 0.000000 0.492040
vn 0.492040 0.000000 -0.870573
vn 0.492039 0.000000 -0.870573
vn 0.492040 0.000000 -0.870573
vn 0.492040 0.000000 -0.870573
vn 0.492039 0.000000 -0.870573
vn 0.492040 0.000000 -0.870573
vn -0.492040 0.000000 0.870573
vn -0.492040 0.000000 0.870573
vn -0.492040 0.000000 0.870573
vn -0.492040 0.000000 0.870573
vn -0.492040 0.000000 0.870573
vn -0.492040 0.000000 0.870573
vn 0.492040 0.000000 -0.870573
vn 0.492040 0.000000 -0.870573
vn -0.492040 0.000000 0.870573
vn -0.492040 0.000000 0.870573
vn -0.870573 0.000000 -0.492040
vn -0.870573 0.000000 -0.492040
vn -0.870573 0.000000 -0.492040
vn -0.870573 0.000000 -0.492040
vn 0.870573 0.000000 0.492040
vn 0.870573 0.000000 0.492040
vn 0.870573 0.000000 0.492040
vn 0.870573 0.000000 0.492040
vn 0.000000 -1.000000 0.000000
vn 0.000000 -1.000000 0.000000
vn 0.000000 -1.000000 0.000000
vn 0.000000 -1.000000 0.000000
vn 0.000000 1.000000 0.000000
vn 0.000000 1.000000 0.000000
vn 0.000000 1.000000 0.000000
vn 0.000000 1.000000 0.000000
vn 0.000000 -1.000000 0.000000
vn 0.000000 -1.000000 0.000000
vn 0.000000 -1.000000 0.000000
vn 0.000000 -1.000000 0.000000
vn 0.000000 1.000000 0.000000
vn 0.000000 1.000000 0.000000
vn 0.000000 1.000000 0.000000
vn 0.000000 1.000000 0.000000
vn -0.870573 0.000000 -0.492040
vn -0.870573 0.000000 -0.492040
vn -0.870573 0.000000 -0.492040
vn -0.870573 0.000000 -0.492040
vn 0.870573 0.000000 0.492040
vn 0.870573 0.000000 0.492040
vn 0.870573 0.000000 0.492040
vn 0.870573 0.000000 0.492040
vn 0.492040 0.000000 -0.870573
vn 0.492040 0.000000 -0.870573
vn 0.492040 0.000000 -0.870573
vn 0.492040 0.000000 -0.870573
vn 0.492040 0.000000 -0.870573
vn 0.492040 0.000000 -0.870573
vn -0.492040 0.000000 0.870573
vn -0.492040 0.000000 0.870573
vn -0.492040 0.000000 0.870573
vn -0.492040 0.000000 0.870573
vn -0.492040 0.000000 0.870573
vn -0.492040 0.000000 0.870573
vn 0.492040 0.000000 -0.870573
vn 0.492040 0.000000 -0.870573
vn -0.492040 0.000000 0.870573
vn -0.492040 0.000000 0.870573
vn -0.492040 0.000000 0.870573
vn -0.492040 0.000000 0.870573
vn -0.492040 0.000000 0.870573
vn -0.492040 0.000000 0.870573
vn 0.000000 -1.000000 0.000000
vn 0.000000 -1.000000 0.000000
vn 0.000000 -1.000000 0.000000
vn 0.000000 -1.000000 0.000000
vn 0.492040 0.000000 -0.870573
vn 0.492040 0.000000 -0.870573
vn 0.492040 0.000000 -0.870573
vn 0.492040 0.000000 -0.870573
vn 0.000000 1.000000 0.000000
vn 0.000000 1.000000 0.000000
vn 0.000000 1.000000 0.000000
vn 0.000000 1.000000 0.000000
vn 0.870573 0.000000 0.492040
vn 0.870573 0.000000 0.492040
vn 0.870573 0.000000 0.492040
vn 0.870573 0.000000 0.492040
vn -0.870573 0.000000 -0.492040
vn -0.870573 0.000000 -0.492040
vn -0.870573 0.000000 -0.492040
vn -0.870573 0.000000 -0.492040
s off
g pCube9
usemtl lambert3SG
f 43/85/83 45/87/84 46/88/85 44/86/86
f 45/87/87 47/89/88 48/90/89 46/88/90
f 47/89/91 49/91/92 50/92/93 48/90/94
f 49/91/95 43/93/96 44/94/97 50/92/98
f 44/86/99 46/88/100 48/96/101 50/95/102
f 49/97/103 47/98/104 45/87/105 43/85/106
f 51/99/107 53/102/108 54/101/109 52/100/110
f 53/102/111 55/104/112 56/103/113 54/101/114
f 55/104/115 57/106/116 58/105/117 56/103/118
f 57/106/119 51/108/120 52/107/121 58/105/122
f 52/100/123 54/101/124 56/110/125 58/109/126
f 57/111/127 55/112/128 53/102/129 51/99/130
f 59/113/131 60/114/132 61/115/133 62/116/134
f 63/117/135 64/118/136 65/119/137 66/120/138
f 62/116/139 61/115/140 67/121/141 68/122/142
f 69/123/143 70/124/144 64/118/145 63/117/146
f 71/125/147 72/126/148 66/127/149 65/128/150
f 60/129/151 59/130/152 73/131/153 74/132/154
f 72/133/155 71/134/156 70/124/157 69/123/158
f 68/122/159 67/121/160 74/135/161 73/136/162
s 1
f 61/115/163 60/129/164 74/132/165 71/137/166 65/138/167 64/139/168
s 2
f 59/130/169 62/140/170 63/141/171 66/142/172 72/143/173 73/131/174
s 1
f 74/132/165 67/121/175 61/115/163 64/139/168 70/144/176 71/137/166
s 2
f 72/143/173 69/145/177 63/141/171 62/140/170 68/146/178 73/131/174
s off
f 75/147/179 76/148/180 77/149/181 78/150/182
f 79/151/183 80/152/184 81/153/185 82/154/186
f 78/150/187 77/149/188 83/155/189 84/156/190
f 85/157/191 86/158/192 80/152/193 79/151/194
f 87/159/195 88/160/196 82/161/197 81/162/198
f 76/163/199 75/164/200 89/165/201 90/166/202
f 88/167/203 87/168/204 86/158/205 85/157/206
f 84/156/207 83/155/208 90/169/209 89/170/210
s 3
f 77/149/211 76/163/212 90/166/213 87/171/214 81/172/215 80/173/216
s 4
f 75/164/217 78/174/218 79/175/219 82/176/220 88/177/221 89/165/222
s 3
f 90/166/213 83/155/223 77/149/211 80/173/216 86/178/224 87/171/214
s 4
f 88/177/221 85/179/225 79/175/219 78/174/218 84/180/226 89/165/222
s off
f 91/181/227 93/184/228 94/183/229 92/182/230
f 93/184/231 95/186/232 96/185/233 94/183/234
f 95/186/235 97/188/236 98/187/237 96/185/238
f 97/188/239 91/190/240 92/189/241 98/187/242
f 92/182/243 94/183/244 96/192/245 98/191/246
f 97/193/247 95/194/248 93/184/249 91/181/250
