# This file uses centimeters as units for non-parametric coordinates.

mtllib baseCama.mtl
g default
v -4.950333 2.543155 4.945930
v 3.678714 2.543155 4.945930
v -4.950333 2.543155 -4.574664
v 3.678714 2.543155 -4.574664
v -4.950333 -0.171053 4.945930
v 3.678714 -0.171053 4.945930
v -4.950333 -0.171053 -4.574664
v 3.678714 -0.171053 -4.574664
v 3.678714 2.543155 4.945930
v -4.950333 2.543155 4.945930
v 3.678714 2.543155 -4.574664
v -4.950333 2.543155 -4.574664
vt 0.375000 0.250000
vt 0.625000 0.250000
vt 0.625000 0.500000
vt 0.375000 0.500000
vt 0.375000 0.000000
vt 0.625000 0.000000
vt 0.625000 0.250000
vt 0.375000 0.250000
vt 0.375000 0.500000
vt 0.625000 0.500000
vt 0.625000 0.750000
vt 0.375000 0.750000
vt 0.625000 1.000000
vt 0.375000 1.000000
vt 0.875000 0.000000
vt 0.875000 0.250000
vt 0.125000 0.000000
vt 0.125000 0.250000
vn 0.000000 1.000000 0.000000
vn 0.000000 1.000000 0.000000
vn 0.000000 1.000000 0.000000
vn 0.000000 1.000000 0.000000
vn 0.000000 0.000000 1.000000
vn 0.000000 0.000000 1.000000
vn 0.000000 0.000000 1.000000
vn 0.000000 0.000000 1.000000
vn 0.000000 0.000000 -1.000000
vn 0.000000 0.000000 -1.000000
vn 0.000000 0.000000 -1.000000
vn 0.000000 0.000000 -1.000000
vn 0.000000 -1.000000 0.000000
vn 0.000000 -1.000000 0.000000
vn 0.000000 -1.000000 0.000000
vn 0.000000 -1.000000 0.000000
vn 1.000000 0.000000 0.000000
vn 1.000000 0.000000 0.000000
vn 1.000000 0.000000 0.000000
vn 1.000000 0.000000 0.000000
vn -1.000000 0.000000 0.000000
vn -1.000000 0.000000 0.000000
vn -1.000000 0.000000 0.000000
vn -1.000000 0.000000 0.000000
s off
g polySurface2
usemtl Cama:lambert8SG
f 1/1/1 2/2/2 4/3/3 3/4/4
f 5/5/5 6/6/6 9/7/7 10/8/8
f 12/9/9 11/10/10 8/11/11 7/12/12
f 7/12/13 8/11/14 6/13/15 5/14/16
f 6/6/17 8/15/18 11/16/19 9/7/20
f 7/17/21 5/5/22 10/8/23 12/18/24
