# This file uses centimeters as units for non-parametric coordinates.

mtllib EscritorioMarmol.mtl
g default
v 9.240200 5.107174 10.857607
v 13.978491 5.107174 10.857607
v 9.240200 5.431511 10.857607
v 13.978491 5.431511 10.857607
v 9.240200 5.431511 2.678219
v 13.978491 5.431511 2.678219
v 9.240200 5.107174 2.678219
v 13.978491 5.107174 2.678219
vt 0.375000 0.000000
vt 0.625000 0.000000
vt 0.625000 0.250000
vt 0.375000 0.250000
vt 0.013579 0.010681
vt 0.962000 0.030217
vt 0.957116 0.978638
vt 0.028231 0.988407
vt 0.375000 0.500000
vt 0.625000 0.500000
vt 0.625000 0.750000
vt 0.375000 0.750000
vt 0.625000 1.000000
vt 0.375000 1.000000
vt 0.875000 0.000000
vt 0.875000 0.250000
vt 0.007782 0.039073
vt 0.975740 0.034188
vt 0.995276 0.987494
vt 0.022435 0.977726
vn 0.000000 0.000000 1.000000
vn 0.000000 0.000000 1.000000
vn 0.000000 0.000000 1.000000
vn 0.000000 0.000000 1.000000
vn 0.000000 1.000000 0.000000
vn 0.000000 1.000000 0.000000
vn 0.000000 1.000000 0.000000
vn 0.000000 1.000000 0.000000
vn 0.000000 0.000000 -1.000000
vn 0.000000 0.000000 -1.000000
vn 0.000000 0.000000 -1.000000
vn 0.000000 0.000000 -1.000000
vn 0.000000 -1.000000 0.000000
vn 0.000000 -1.000000 0.000000
vn 0.000000 -1.000000 0.000000
vn 0.000000 -1.000000 0.000000
vn 1.000000 0.000000 0.000000
vn 1.000000 0.000000 0.000000
vn 1.000000 0.000000 0.000000
vn 1.000000 0.000000 0.000000
vn -1.000000 0.000000 0.000000
vn -1.000000 0.000000 0.000000
vn -1.000000 0.000000 0.000000
vn -1.000000 0.000000 0.000000
s off
g EscritorioMarmol:pCube114
usemtl EscritorioMarmol:lambert3SG
f 1/1/1 2/2/2 4/3/3 3/4/4
f 3/5/5 4/6/6 6/7/7 5/8/8
f 5/9/9 6/10/10 8/11/11 7/12/12
f 7/12/13 8/11/14 2/13/15 1/14/16
f 2/2/17 8/15/18 6/16/19 4/3/20
f 7/17/21 1/18/22 3/19/23 5/20/24
